# xmcd
#
# Track frame offsets:
#	150
#	11915
#	23960
#	36342
#	48595
#	58451
#	70968
#	76811
#	85483
#	97141
#	106965
#	115551
#	125717
#	135019
#	147456
#	156985
#	166343
#	176808
#	186484
#	195851
#	206670
#	216166
#	226684
#	235837
#	244983
#	258162
#	267836
#	276392
#	297413
#	310601
#
# Disc length: 4290 seconds
#
# Revision: 0
# Processed by: cddbd v1.5.2PL0 Copyright (c) Steve Scherf et al.
# Submitted via: EZCDAudioConverter 2.1.7.1
#
DISCID=c110c01e
DTITLE=V/A - 61 Classics From The Cramps' Crazy Collection 2/2
DYEAR=1900
DGENRE=
TTITLE0=The Nite Cats - Jungle
TTITLE1=Ronnie Ray's Playboys - The Vulture
TTITLE2=Bob Taylor - Thunder
TTITLE3=The Champs - Nite Owl
TTITLE4=The Quotations - Imagination
TTITLE5=The Fleetwoods - Unchained Melody [A Cappella Version]
TTITLE6=The Clovers - Rotten Cocksuckers Ball
TTITLE7=The Ventures - Ya Ya Wobble
TTITLE8=Five Sharps - Stormy Weather
TTITLE9=Ronnie Dawson - Action Packed
TTITLE10=Storey Sisters - Bad Motorcycle
TTITLE11=Bill Carter - Baby Brother
TTITLE12=Gene Maltais - Gang War
TTITLE13=Andre Williams with The Five Dollars - M M M M Andre Williams Is Movi
TTITLE13=ng
TTITLE14=The Imps - Uh Oh
TTITLE15=Ronnie Isle - Wicked
TTITLE16=Musical Linn Twins - Indian Rock
TTITLE17=Clyde Stacey - Hoy Hoy
TTITLE18=Portuguese Joe - Teenage Riot
TTITLE19=Ric Cartey - My Babe
TTITLE20=Betty McQuaid - Toungue Tied
TTITLE21=Ersal Hickey - Hangin' Around
TTITLE22=John Buck - Forbidden City
TTITLE23=Vernon Green and The Phantoms - Sweet Breeze
TTITLE24=5 Jones Boys - Mr. Ghost Goes To Town
TTITLE25=Ken Nordine - Strollin' Spooks
TTITLE26=Bob McFadden - Noisy Village
TTITLE27=Arthur Lyman - Taboo
TTITLE28=Les Baxter - Lust
TTITLE29=Legendary Stardust Cowboy - Paralized
EXTD=
EXTT0=
EXTT1=
EXTT2=
EXTT3=
EXTT4=
EXTT5=
EXTT6=
EXTT7=
EXTT8=
EXTT9=
EXTT10=
EXTT11=
EXTT12=
EXTT13=
EXTT14=
EXTT15=
EXTT16=
EXTT17=
EXTT18=
EXTT19=
EXTT20=
EXTT21=
EXTT22=
EXTT23=
EXTT24=
EXTT25=
EXTT26=
EXTT27=
EXTT28=
EXTT29=
PLAYORDER=
